<?xml version="1.0" standalone="no"?>
<!DOCTYPE svg PUBLIC "-//W3C//DTD SVG 1.1//EN" "http://www.w3.org/Graphics/SVG/1.1/DTD/svg11.dtd" >
<svg xmlns="http://www.w3.org/2000/svg" xmlns:xlink="http://www.w3.org/1999/xlink" version="1.1">
<metadata>
Created by FontForge 20161003 at Wed Feb 14 15:47:22 2018
 By www-data
</metadata>
<defs>
<font id="Chomp" horiz-adv-x="200" >
  <font-face 
    font-family="Chomp"
    font-weight="400"
    font-stretch="normal"
    units-per-em="1000"
    panose-1="0 0 0 0 0 0 0 0 0 0"
    ascent="750"
    descent="-250"
    x-height="726"
    cap-height="740"
    bbox="-38.0323 -46 790 763"
    underline-thickness="50"
    underline-position="-150"
    unicode-range="U+000D-201C"
  />
<missing-glyph 
 />
    <glyph glyph-name=".notdef" 
 />
    <glyph glyph-name=".null" horiz-adv-x="0" 
 />
    <glyph glyph-name="nonmarkingreturn" unicode="&#xd;" 
 />
    <glyph glyph-name="NULL" horiz-adv-x="0" 
 />
    <glyph glyph-name="NULL" horiz-adv-x="0" 
 />
    <glyph glyph-name="space" unicode=" " 
 />
    <glyph glyph-name="exclam" unicode="!" horiz-adv-x="168" 
d="M25 305q1 12 -4.5 22.5t-18.5 15.5v384h117v-597h-117v53h2q11 0 18.5 5.5t11 13.5t3 17.5t-4.5 17.5q15 1 22.5 12t7 24t-9 23t-24.5 10q-1 0 -1.5 -0.5t-1.5 -0.5zM119 0h-117v78h117v-78z" />
    <glyph glyph-name="quotedbl" unicode="&#x22;" horiz-adv-x="380" 
d="M2 700h116q0 -18 2 -42.5t2 -49t-5 -46.5t-20 -35q-11 -10 -25.5 -15t-28.5 -7q8 1 14.5 9t10 18.5t3.5 21t-4 16.5q-5 7 -12.5 9t-17 2t-19 -1.5t-16.5 -1.5v122zM311 615q-3 -15 8 -23q-1 -20 -6.5 -37t-17.5 -28q-11 -10 -25.5 -15t-29.5 -7q8 1 14.5 9t10.5 18.5
t4 21t-4 16.5q-5 7 -13 9t-17 2t-18.5 -1.5t-16.5 -1.5v122h116v-6.5t1 -7.5q-12 -2 -16 -11.5t0 -18.5q-7 -3 -10 -9.5t-2.5 -13.5t6 -12.5t14.5 -5.5h2z" />
    <glyph glyph-name="numbersign" unicode="#" horiz-adv-x="621" 
d="M507 504l-42 -233h129v-33h-135l-9 -45q-10 -1 -14.5 -7.5t-4.5 -14.5h-1q-14 0 -18.5 -11t0.5 -21q-11 -6 -10.5 -19.5t11.5 -18.5q-2 -8 2 -16.5t14 -10.5l-14 -73h-116l48 237h-149l-48 -237h-117l52 237h-97v33h104l50 233h-142v33h149l25 114q6 3 8 9h4q11 0 16 7
t4 15q8 2 11.5 8.5t3.5 13.5q9 1 13.5 7t4.5 14q19 1 34.5 2t17.5 2l-31 -192h143l39 192h107l-36 -192h93v-33h-99zM400 502h-148l-47 -231h148z" />
    <glyph glyph-name="dollar" unicode="$" horiz-adv-x="405" 
d="M196 633v1v-1zM358 309q4 -42 -2.5 -85.5t-23.5 -79.5t-43.5 -60.5t-62.5 -30.5q-11 -2 -21 -2.5t-21 -1.5v-46h-38v45q-39 2 -68.5 12.5t-50.5 26.5t-35 37t-22 44q14 1 19.5 11.5t2.5 21.5q4 -2 8 -2q8 0 12.5 4.5t6 10.5t-0.5 12t-7 9q7 2 10.5 7.5t3.5 12.5h20
q1 -35 13 -62q5 -12 13.5 -23t21 -19.5t30 -13.5t40.5 -4q29 1 48 25t28.5 60t9 77.5t-10 76.5t-28.5 58t-47 23q-39 -1 -67.5 10t-44.5 33t-18 53.5t13 71.5q7 19 17 31t22.5 19.5t27.5 11.5t33 6v44h38v-42q20 -3 34.5 -10t23.5 -14q11 -8 16 -17q0 -11 -6 -26.5t-6 -23.5
q-5 11 -13 22t-17.5 19.5t-19 15t-15.5 8.5q-8 3 -16.5 -8.5t-15 -31t-10.5 -43.5t-3.5 -46t6 -38t18.5 -19q25 -7 54 -9t57 -13q-6 -9 -2.5 -21t17.5 -14q-2 -9 3 -17t17 -8q8 0 13 4q5 -8 16 -8h3q16 -33 20 -84z" />
    <glyph glyph-name="percent" unicode="%" horiz-adv-x="636" 
d="M156 469q1 0 -12.5 -3t-34.5 -3.5t-46 3.5t-46 18.5t-35.5 41.5t-14.5 72q0 43 16 67.5t38.5 36.5t45.5 15t38 3q30 0 57 -10t46 -31q7 -8 12 -21t8.5 -25.5t5.5 -23t2 -13.5q0 -50 -22 -81.5t-58 -45.5zM97 692q-21 3 -33.5 -4.5t-19.5 -22t-9.5 -34.5t-2.5 -41
q0 -18 3 -35t11 -30t22 -20t36 -4q35 5 51 32t16 59q1 29 -8.5 54.5t-38.5 37.5q-17 7 -27 8zM605 140q1 -8 8 -15q-2 -47 -25 -77.5t-58 -43.5q1 0 -13.5 -3.5t-36.5 -4t-48.5 4t-49 19.5t-37.5 43.5t-15 75.5q0 45 17 71t40.5 39t48.5 16t40 3q32 0 60 -10t48 -33
q2 -3 4.5 -6t4.5 -7q-9 0 -14.5 -5.5t-6 -12.5t2.5 -14t10 -10q-4 -9 0.5 -19.5t18.5 -10.5h1zM475 37q18 3 31.5 12t22 22t13 29t4.5 33q0 31 -10 58t-41 39q-17 7 -27 8q-22 4 -35.5 -4t-21 -23.5t-10 -37t-2.5 -43.5q0 -18 3.5 -36t12 -31.5t23 -21t37.5 -4.5zM533 729
l-31 -67q-2 0 -3.5 0.5t-3.5 0.5q-13 0 -18 -10q-6 6 -15 6q-15 0 -19.5 -12.5t2.5 -21.5q-10 -5 -11.5 -16.5t6.5 -19.5q-8 -2 -11 -9t-2.5 -14.5t6 -13t14.5 -5.5q1 0 1 0.5t1 0.5l-255 -547h-117l334 728h122z" />
    <glyph glyph-name="ampersand" unicode="&#x26;" horiz-adv-x="327" 
d="M239 381q33 -26 40.5 -65.5t-5.5 -80t-43.5 -75t-72.5 -50.5v-107h-26q0 6 -3.5 11.5t-10.5 7.5q7 9 3 21.5t-18 13.5q0 8 -5 15t-16 7q-6 0 -10 -3q-5 5 -9 7v30q-18 4 -38 11t-41 18l1 6.5t2.5 15.5t4 18t4.5 14q10 -12 21.5 -22.5t26.5 -12.5q7 -1 17 1h2v203
q-14 -2 -28 -3.5t-25 -4t-18 -4.5t-7 -5l2 53q20 2 39 3.5t37 3.5v164q-38 -9 -87 -30q1 8 1 17v17t-1 18q48 27 87 39v97h95v-65q29 -7 50 -25t34 -41.5t18.5 -50t3.5 -50.5t-11.5 -42.5t-25.5 -26.5q-6 -3 -7 -9.5t1.5 -13.5t7.5 -14t10 -11zM158 434q6 6 14.5 15.5
t16 20.5t12.5 23.5t5 23.5q0 9 -5 17t-12.5 15.5t-16 14t-14.5 10.5v-140zM158 172q11 7 23 19t21.5 26.5t14.5 29.5t1 29q-2 7 -9 15t-16.5 16l-19 16t-15.5 14v-165z" />
    <glyph glyph-name="quotesingle" unicode="'" horiz-adv-x="154" 
d="M5 697h117q0 -18 2 -42.5t1.5 -49.5t-5.5 -46.5t-19 -34.5q-12 -10 -26.5 -15.5t-28.5 -7.5q8 1 14.5 9.5t10 19t3.5 21t-4 16.5q-5 6 -12.5 8t-17 2t-19 -1t-16.5 -1v122z" />
    <glyph glyph-name="parenleft" unicode="(" horiz-adv-x="224" 
d="M172 51q13 -24 21 -37t6 -13h-116q-31 97 -49.5 171t-26.5 132.5t-6 108t13.5 98t32 101.5t48.5 120q10 0 24 0.5t28.5 0.5t28 -1t23.5 -4l-16.5 -15.5t-36.5 -55t-37 -106.5t-18 -170q-1 -45 4.5 -85t13.5 -76q-8 -2 -12 -8t-4 -13.5t4.5 -13.5t13.5 -7q-12 -8 -8 -24
q-11 -6 -10.5 -20.5t14.5 -18.5q1 -7 5.5 -13t13.5 -7q-7 -9 -2.5 -21.5t18.5 -12.5q6 0 11 3q2 -5 6.5 -9t12.5 -4z" />
    <glyph glyph-name="parenright" unicode=")" horiz-adv-x="241" 
d="M159 601q18 -69 28.5 -124t12.5 -101.5t-3.5 -88.5t-17.5 -85t-30.5 -90t-42.5 -105q-11 0 -24.5 -1t-28 -1t-28 1t-23.5 4l16.5 16t36.5 55t37 106t18 170q1 87 -17 157t-39 120t-37.5 77t-14.5 27h116q2 -6 3.5 -12t3.5 -12q-8 -5 -8 -18q-9 -6 -9.5 -17.5t7.5 -18.5
q-5 -8 -2.5 -18.5t13.5 -13.5q-7 -9 -3 -22t19 -13q11 0 17 8z" />
    <glyph glyph-name="asterisk" unicode="*" horiz-adv-x="541" 
d="M324 430l93 -163l-71 -40l-97 169l-121 -153l-64 51l107 135l-171 -1l-1 68q6 -6 15 -6q11 0 16 8q1 -8 6 -13.5t14 -5.5q4 0 5 1q4 -7 13 -9q5 -7 15 -7q8 0 13 5t7 11q2 0 3 -0.5t3 -0.5q14 0 18.5 11t-0.5 20l57 1l-91 159l71 40l96 -169l122 153l64 -51l-104 -131
l168 2v-82z" />
    <glyph glyph-name="plus" unicode="+" horiz-adv-x="582" 
d="M536 293h-211v-211h-116v72q4 -2 6 -2q8 0 13 4.5t7 10.5t0.5 12.5t-6.5 10.5q6 5 7 13.5t-3 15.5q8 2 11.5 9t2.5 14.5t-6 13t-15 5.5h-2q-4 13 -15 14v18h-212v117h212v211h116v-211h211v-117z" />
    <glyph glyph-name="comma" unicode="," horiz-adv-x="151" 
d="M3 158h116q0 -18 2 -42.5t2 -49t-5 -46.5t-20 -35q-11 -10 -25.5 -15.5t-28.5 -7.5q8 1 14.5 9.5t10 19t3.5 21t-4 16.5q-5 6 -12.5 8t-17 2t-19 -1t-16.5 -1v122z" />
    <glyph glyph-name="hyphen" unicode="-" horiz-adv-x="590" 
d="M539 353v-117h-539v117h194q-4 -10 0.5 -20t18.5 -10q7 0 10 2q3 -13 19 -13h5q3 -3 7 -5.5t10 -2.5q11 0 16 7.5t5 15.5q1 -1 4 -1q12 0 17 9t3 18h230z" />
    <glyph glyph-name="period" unicode="." horiz-adv-x="154" 
d="M106 84q4 -6 11 -9v-74h-116v122h52q-2 -9 2.5 -17t15.5 -10q1 -7 6 -12.5t15 -5.5q9 0 14 6z" />
    <glyph glyph-name="slash" unicode="/" horiz-adv-x="395" 
d="M162 202q-14 0 -18.5 -10t-0.5 -19q-11 -2 -14.5 -12t0.5 -18q-3 1 -7 1q-8 0 -13 -4.5t-7 -10.5t-0.5 -12.5t6.5 -10.5q-9 -8 -6 -21.5t18 -15.5l-27 -66h-116l301 727h106l-210 -524q-6 -2 -10 -4h-2v0z" />
    <glyph glyph-name="zero" unicode="0" horiz-adv-x="512" 
d="M448 470q-2 -8 2 -16.5t12 -13.5q1 -14 1.5 -28.5t0.5 -30.5q0 -96 -18 -169t-50 -121.5t-75 -73.5t-92 -25q-44 0 -86 20t-74.5 66.5t-51.5 122t-17 185.5q2 81 16 138.5t35 96t46.5 61t51.5 33.5t49 14.5t40 3.5q52 1 98.5 -27.5t78.5 -88.5q-8 -3 -12.5 -9.5t-5.5 -14
t2 -15.5t9 -12q-9 -11 -6 -26.5t17 -20.5q-6 -6 -7.5 -14.5t1 -16.5t9 -13.5t17.5 -5.5q6 0 9 1zM229 34q21 0 38 16.5t31 44t24 63t16.5 73t10 73.5t3.5 66q0 32 -2.5 69.5t-9 74.5t-16 71.5t-23 61t-31.5 42.5t-40 16q-39 0 -62 -32t-35.5 -81.5t-16 -110t-3.5 -118.5
q0 -26 3 -60.5t9.5 -71t16 -72t22.5 -63.5t29 -45t36 -17z" />
    <glyph glyph-name="one" unicode="1" horiz-adv-x="171" 
d="M88 582q-2 -10 3 -19t18 -9q5 0 7 1v-556h-116v728h116v-47h-5q-15 0 -19.5 -12t2.5 -23q-6 4 -12 4q-14 0 -19 -11t0 -21q-8 -10 -3.5 -23.5t20.5 -13.5q4 0 8 2z" />
    <glyph glyph-name="two" unicode="2" horiz-adv-x="429" 
d="M403 31v-31h-357h-46q8 16 15 31t14.5 33t17 42t23 58.5t32 82t44.5 113.5q9 24 25.5 62.5t30.5 81t21.5 82t-2.5 64.5q-7 18 -24.5 27.5t-37 10t-35.5 -9.5t-20 -32q-3 0 -16 -0.5t-28 -1t-28 -1t-16 -0.5q0 24 17.5 42.5t44.5 29.5t60 15.5t64.5 0.5t58 -16.5
t40.5 -33.5q20 -32 28 -62t6.5 -60.5t-9.5 -61.5t-19 -63q-1 1 -2.5 -3t-4.5 -6q-5 5 -14 5q-16 0 -20 -13.5t4 -22.5q-7 -1 -11 -6t-5.5 -11t0 -12t6.5 -10q-10 0 -13.5 -6t-3.5 -13t2 -13.5t5 -7.5q4 -2 -1.5 -20t-17 -45t-26.5 -59.5t-30.5 -63t-28.5 -56t-19 -38.5z" />
    <glyph glyph-name="three" unicode="3" horiz-adv-x="380" 
d="M326 303q3 -6 8 -10q11 -32 12.5 -68.5t-9.5 -72t-35.5 -66.5t-65.5 -52t-99.5 -29.5t-136.5 1.5v79q72 1 121.5 24t75.5 57t28.5 73.5t-20.5 72.5t-71 54.5t-123 19.5v32q45 4 85.5 12t71 24.5t48 44t16.5 70.5q-1 31 -9 52.5t-32.5 34t-70 16.5t-120.5 1q1 8 1 18v19
t-1 22q91 4 151.5 -8t96 -34t50 -52t14.5 -62t-10 -63.5t-24.5 -56.5t-28.5 -41t-22 -17q20 -1 38 -12q-8 -10 -3.5 -24.5t21.5 -14.5q5 -13 17 -14q-4 -10 0.5 -20.5t18.5 -10.5q5 0 7 1z" />
    <glyph glyph-name="four" unicode="4" horiz-adv-x="419" 
d="M367 728v-728h-117v364l-214 -61l-51 425h35q5 -13 19 -14q-5 -10 -0.5 -22t19.5 -12q5 0 10 3q-2 -10 3.5 -18.5t17.5 -8.5q7 0 12 3l10 -273l139 32v310h117z" />
    <glyph glyph-name="five" unicode="5" horiz-adv-x="480" 
d="M440 293q4 -48 -3.5 -97.5t-27 -91t-50 -70t-71.5 -34.5q-95 -15 -155.5 3.5t-95 55t-46 83t-7.5 87.5q11 0 24 0.5t26.5 1.5t25.5 1h21q1 -42 15 -75q6 -14 15.5 -27.5t24 -24t34.5 -17t46 -6.5q37 0 65.5 28.5t42 72t9.5 94t-32.5 93t-83.5 70.5t-143 26q-1 0 -1 26
v57.5t1 57.5t1 27t4 4.5t7.5 7.5t6 7.5t-0.5 4.5q6 -2 11 -2q10 0 15 6.5t6 14.5q4 -2 8 -2q13 0 18 9.5t2 19.5q7 0 11 4.5t6 9.5t2 9.5v4.5q18 1 44 1h54t54.5 -0.5t45.5 -0.5q0 -7 -0.5 -19t-0.5 -25.5v-27v-22.5h-20h-38.5h-48h-47h-36h-15.5q-1 -12 -2 -30t-1.5 -37.5
t-0.5 -37.5t1 -30q0 -1 14.5 -2t37.5 -3t51 -6.5t55 -14t49 -24.5t34 -38q9 -17 15.5 -31t11 -28t7.5 -29t5 -34z" />
    <glyph glyph-name="six" unicode="6" horiz-adv-x="424" 
d="M298 391q14 -10 27.5 -26.5t24 -35t17.5 -37t8 -32.5t1.5 -37.5t-2.5 -50.5t-11.5 -55t-24.5 -51.5t-41.5 -40t-62.5 -20.5q-16 -2 -41 -4t-53 3.5t-55.5 22.5t-47.5 52.5t-30 94t-3 147.5q2 31 1 61.5t-1 62.5q11 2 15.5 10t3.5 17q16 4 20.5 19t-2.5 28q6 6 7.5 15
t-1.5 17.5t-10 14t-18 5.5q2 9 -1.5 18.5t-13.5 12.5q1 51 22.5 82.5t54 48t70.5 20t73.5 -0.5t63 -13.5t38.5 -19.5q-1 -21 0.5 -43t1.5 -39q-45 31 -86.5 36.5t-73 -7.5t-49.5 -41t-16 -63q0 -3 -1 -28t-2 -54t-1.5 -52t0.5 -23q41 20 74.5 22t59 -4.5t42 -16.5t23.5 -15z
M105 184q0 -13 3.5 -31.5t13 -35.5t25.5 -28.5t42 -11.5q23 0 40 15t27.5 37t15.5 45.5t5 41.5q0 15 -3 33t-9.5 35.5t-17 32t-26.5 21.5q-26 12 -45 9.5t-32 -15t-20.5 -32.5t-11.5 -41t-5.5 -41.5t-1.5 -33.5z" />
    <glyph glyph-name="seven" unicode="7" horiz-adv-x="424" 
d="M-15 692v36h407v-29q-6 2 -10 2q-16 0 -20.5 -13.5t3.5 -23.5q-5 -5 -7 -15q-13 -5 -14.5 -19t9.5 -21q-5 -10 0 -21.5t19 -11.5q2 0 3 0.5t3 0.5q2 -13 14 -16l-140 -561h-129l152 692h-290z" />
    <glyph glyph-name="eight" unicode="8" horiz-adv-x="473" 
d="M394 350q12 -13 21 -33.5t15 -41t9.5 -37.5t3.5 -21q0 -21 -3 -40q-16 -1 -22.5 -13t-3.5 -24q-4 3 -9 5.5t-11 2.5q-20 0 -26 -15.5t1 -28.5h-1q-20 0 -26 -15.5t2 -29.5q-10 -2 -17 -9.5t-6 -18.5q0 -3 2 -9q-26 -12 -54.5 -17.5t-60.5 -5.5q-44 0 -86 11t-74.5 37
t-51.5 68.5t-17 104.5q2 46 16 78.5t36 54.5t48.5 34.5t52.5 18.5q-25 7 -47 20.5t-38.5 35t-25.5 51.5t-7 71q2 58 24 91t51.5 49.5t60 20.5t50.5 4q41 0 77.5 -13t61.5 -42q9 -11 16 -28t12.5 -34.5t8 -31.5t2.5 -18q0 -67 -30 -110t-79 -61q37 -6 69.5 -21t55.5 -40z
M103 573q0 -24 4 -47t14.5 -40t29.5 -26.5t48 -5.5q24 3 41 14.5t28 28.5t16.5 38t5.5 42q1 39 -12 73.5t-52 50.5q-20 7 -36 10q-28 4 -45 -6t-26.5 -30t-12.5 -47t-3 -55zM212 53q33 -3 56 10.5t36.5 37t20 52.5t6.5 57q1 32 -6 63.5t-22.5 55.5t-41.5 38t-63 11t-58 -19
t-31.5 -40t-13.5 -53t-3 -59q0 -62 25.5 -103t89.5 -50q1 -1 5 -1z" />
    <glyph glyph-name="nine" unicode="9" horiz-adv-x="439" 
d="M65 364q-15 10 -30 26t-26.5 34.5t-19 37t-8.5 32.5t-1.5 37.5t3 51t12.5 55.5t26.5 51.5t45 39.5t67.5 20q17 2 44.5 4t58 -3.5t60 -22.5t51.5 -52.5t33 -94t3 -147.5q-3 -31 -1.5 -62t0.5 -62q-11 -2 -16.5 -10t-4.5 -18q-17 -3 -22 -18t3 -28q-6 -6 -8 -15t1 -17.5
t10.5 -14t19.5 -5.5q-2 -9 2 -19t15 -13q7 -2 9 -23t2 -47t-1.5 -49.5t-1.5 -29.5q-31 -2 -64.5 -3.5t-63.5 -0.5q0 19 0.5 52t2 71.5t3 78.5t3.5 72.5t4 53.5t4 22q-44 -20 -80.5 -21.5t-64 5t-45.5 17t-25 15.5zM274 570q0 13 -4 31.5t-14 35.5t-27.5 28.5t-45.5 11.5
q-25 0 -43 -15t-29.5 -37t-17 -45.5t-5.5 -41.5q0 -14 3 -32.5t10 -36t18 -32t28 -21.5q29 -12 49.5 -9.5t34.5 15t22.5 32.5t13 41t6 41t1.5 34z" />
    <glyph glyph-name="colon" unicode=":" horiz-adv-x="158" 
d="M0 651h117v-122h-117v122zM117 127v-122h-61q-4 13 -18 14q-1 8 -5.5 13t-14.5 5q-6 0 -9 -1q-2 9 -9 13v78h117z" />
    <glyph glyph-name="semicolon" unicode=";" horiz-adv-x="149" 
d="M106 623q6 -8 11 -9v-75h-116v122h52q-2 -8 2.5 -16.5t15.5 -9.5q1 -8 6 -13.5t14 -5.5q10 0 15 7zM1 149h116q0 -18 2 -42.5t2 -49t-5 -46.5t-20 -34q-11 -10 -25.5 -15.5t-29.5 -7.5q8 1 14.5 9t10.5 18.5t4 21t-4 16.5q-5 7 -12.5 9t-17 2t-19 -1t-16.5 -1v121z" />
    <glyph glyph-name="less" unicode="&#x3c;" horiz-adv-x="419" 
d="M377 183v-121l-378 205l1 68l377 236v-125l-83 -49q-3 5 -10 5q-8 0 -13 -8q-5 8 -12 8q-10 0 -13 -9q-5 5 -11 1q-1 1 -4 1q-7 0 -12 -7q-6 -6 -6 -19q-8 -1 -11.5 -10t-1.5 -18l-69 -41l12 -5z" />
    <glyph glyph-name="equal" unicode="=" horiz-adv-x="580" 
d="M2 417v116h539v-116h-539zM541 313v-117h-299q-7 10 -18 10q-3 0 -5 -1q-1 8 -6 13.5t-14 5.5q-11 0 -17 -8q-1 8 -5.5 13.5t-14.5 5.5q-7 0 -11 -3q-5 3 -11 3q-11 0 -16 -7.5t-4 -15.5q-3 1 -9 1q-9 0 -14 -5t-6 -12h-89v117h539z" />
    <glyph glyph-name="greater" unicode="&#x3e;" horiz-adv-x="495" 
d="M452 355l-1 -61q-6 6 -14 6q-12 0 -17 -11h-3q-8 0 -12 -4q-4 4 -11 4q-8 0 -12.5 -5t-6.5 -13h-1q-13 0 -17 -11t1 -21q-1 -1 -1.5 -1t-1.5 -1l-357 -186v125l295 146l-14 5l-281 112v121z" />
    <glyph glyph-name="question" unicode="?" horiz-adv-x="405" 
d="M179 -2h-100v66h100v-66zM351 642q14 -34 19.5 -73.5t0.5 -78.5q-5 -47 -28 -90t-66 -63q-23 -11 -40 -19.5t-29 -18.5t-19 -24t-10 -36v-22.5t0.5 -42t2 -42t3.5 -23.5h-106q2 14 0.5 40.5t-3 53.5t-2.5 49.5t2 29.5q10 22 29 46t41 35q18 9 33.5 14t28.5 11.5t24 17
t20 30.5q12 26 18.5 49.5t6.5 51.5q0 21 -4.5 45t-15 44t-28.5 33t-45 13q-45 0 -69 -20t-34 -43q-12 -28 -13 -63q-15 -1 -39.5 1t-42.5 2q-3 34 7 74t39.5 70.5t81 46t131.5 1.5q14 -3 28 -9q1 -8 9 -12q-5 -6 -3.5 -14t8.5 -12q-4 -8 0 -18t16 -10q3 0 7 2q3 -14 18 -14
q7 0 10 3q2 -12 13 -15z" />
    <glyph glyph-name="at" unicode="@" horiz-adv-x="765" 
d="M479 614v-242q0 -16 -2 -50.5t-2.5 -74t2 -79t11.5 -66t25.5 -34t44.5 16.5q20 17 35.5 49.5t25.5 72.5t15 84t5 85.5t-5.5 77t-16.5 57.5q-25 50 -64 89.5t-84.5 63t-93.5 29t-90 -11.5q-82 -35 -128.5 -89.5t-66 -117t-16.5 -128t20 -121.5t44 -96.5t55 -54.5
q34 -16 60 -27t50.5 -17t52 -6.5t64.5 4.5l-2 -45q-110 0 -185.5 26.5t-124.5 69t-75.5 94.5t-38.5 102.5t-12.5 93.5t2.5 68q3 34 15 68t30.5 65t42.5 58.5t51 48.5q10 8 35 21t60.5 24.5t79.5 18.5t93 3.5t100.5 -21t101.5 -55.5q36 -27 59.5 -68t38 -88.5t20.5 -97.5
t6 -95q0 -30 -7 -71t-21.5 -81.5t-36.5 -74.5t-52 -52q-10 -5 -28 -8t-37.5 -3t-38 2.5t-28.5 7.5q-26 14 -41 34.5t-27 54.5q-20 -15 -40.5 -21t-40.5 -5t-41 7.5t-42 17.5q-19 9 -33 32t-24 50t-15.5 53.5t-6.5 44.5q-2 19 -1 45.5t5 56.5q3 6 3 12q5 -7 17 -7q10 0 16 6
t7 13.5t-2 15.5t-11 11q12 5 13.5 19t-7.5 22q8 8 7.5 21.5t-11.5 19.5q6 13 14 22q21 25 38 35.5t32.5 13t30.5 1t31 -1.5q20 -2 34 -7.5t24 -13.5v23h82zM397 516q-3 0 -8 11t-13.5 24.5t-21.5 24.5t-33 10q-38 -2 -62.5 -60t-24.5 -166q0 -45 6 -82.5t15.5 -64.5
t22.5 -43t28 -18q16 -2 31.5 2t29.5 9q15 6 30 14v339z" />
    <glyph glyph-name="A" unicode="A" horiz-adv-x="407" 
d="M365 391v-391h-103v346h-156v-346h-104v715h104v-13q7 5 18.5 11.5t29 12t40 7.5t51.5 -2q0 -11 6 -19t18 -10q-2 -11 3.5 -20.5t19.5 -9.5q9 0 13 4q1 0 1 -1q7 -10 20 -10q7 0 10 2q4 -3 10 -3q8 -24 14 -64t5 -103v-106zM262 391l-3 226q3 19 -6 39t-26 33.5t-41 16.5
t-49 -11v-1q-6 -1 -12 -7q-11 -8 -19 -17v-280z" />
    <glyph glyph-name="B" unicode="B" horiz-adv-x="422" 
d="M373 238q2 -19 0.5 -42t-7 -46.5t-13.5 -46t-20 -38.5q-15 -21 -32 -33.5t-39 -19.5t-49.5 -10.5t-61.5 -5.5q-11 1 -21 2t-19 3h-109v422q11 2 15.5 10t3.5 17q16 4 20.5 19t-2.5 28q6 6 7.5 15t-1.5 17.5t-10 14t-18 5.5q2 9 -1.5 18.5t-13.5 13.5v148h113q44 13 92 9
t80 -26q13 -8 25 -22.5t22 -30.5t16.5 -32t7.5 -28q1 -17 -0.5 -37t-6 -40.5t-12.5 -40t-18 -33.5q-17 -24 -39 -36t-53 -17q38 -6 67 -26q14 -10 27.5 -26t24 -35t17.5 -37.5t8 -32.5zM118 425q63 -13 97.5 25.5t34.5 113.5q0 31 -7 56.5t-18 43.5t-24.5 28.5t-26.5 11.5
q-2 0 -8.5 -0.5t-12.5 -1.5l-16 -2q-5 -2 -9.5 -3t-9.5 -3v-269zM150 21q17 -2 35.5 10.5t33.5 35.5t24.5 56.5t9.5 74.5q0 36 -7.5 65t-19 50t-26 33t-28.5 13q-11 2 -22 0l-14 -4q-5 -2 -10.5 -3t-7.5 -2v-317q2 -2 8 -4t11 -4q6 -3 13 -4z" />
    <glyph glyph-name="C" unicode="C" horiz-adv-x="366" 
d="M345 78q-36 -35 -65.5 -53.5t-59 -22t-61 6.5t-72.5 32q-26 14 -45 47t-32 72t-20 77.5t-9 63.5q-2 34 0.5 86.5t10.5 106.5t21.5 102.5t34.5 75.5q17 23 32 36.5t29 21.5q6 -9 19 -9q18 0 23 16q4 -16 22 -16q15 0 20 11q13 0 20 9h13q46 -3 69.5 -24t33.5 -45
q11 -28 10 -63q-25 -5 -38 -7t-29 3q-5 16 -7 34.5t-7 33.5t-17.5 24t-39.5 7q-3 0 -11.5 -1t-19.5 -9t-22.5 -27t-20.5 -55t-15 -93t-6 -142q0 -51 -1 -100.5t4 -90t21 -69t51 -39.5q20 -7 33 -6.5t24 6.5t23 17.5t30 27.5z" />
    <glyph glyph-name="D" unicode="D" horiz-adv-x="439" 
d="M390 441q3 -34 0.5 -86t-11 -106.5t-23 -103t-36.5 -75.5q-30 -36 -54 -51.5t-46 -19t-43.5 -1t-44.5 2.5q-4 1 -7.5 1t-6.5 1h-117v33q7 6 9 16q14 3 17.5 16t-3.5 23q13 5 15.5 17.5t-5.5 22.5q5 5 6.5 12.5t-0.5 14t-7.5 11.5t-14.5 5q-2 0 -2 -1q4 10 0 20.5
t-15 13.5v524h100q33 2 54 3t39.5 -1.5t37.5 -10t47 -21.5q27 -14 47 -46.5t33.5 -71.5t21 -78t9.5 -64zM118 45q46 -2 77 19t50 62t27.5 101t8.5 137q0 65 -5.5 122t-22.5 98t-49 62t-86 15v-616z" />
    <glyph glyph-name="E" unicode="E" horiz-adv-x="375" 
d="M303 680h-188v-12q-12 -2 -16.5 -12t0.5 -19q-17 0 -20.5 -14.5t4.5 -23.5q-5 -4 -7 -10.5t-0.5 -13t6 -11t12.5 -5.5q-5 -10 0 -21t19 -11h2v-115h123v-29h-123v-327h188v-55h-304v728h304v-49z" />
    <glyph glyph-name="F" unicode="F" horiz-adv-x="370" 
d="M303 680h-188v-261h124v-30l-124 2v-126q-2 0 -3 0.5t-3 0.5q-12 0 -17.5 -8.5t-3.5 -17.5q-12 -5 -12.5 -19.5t10.5 -20.5h-1q-11 0 -16.5 -7t-5.5 -15t5.5 -15t16.5 -7q5 0 7 1q3 -13 19 -13h4v-143h-116v679v49h304v-49v0z" />
    <glyph glyph-name="G" unicode="G" horiz-adv-x="387" 
d="M361 188v-134q-84 -48 -148 -54.5t-109.5 18t-74 75.5t-41.5 117t-11.5 142.5t15.5 152.5q6 -8 18 -8q14 0 18.5 10t1.5 20q2 -1 6 -1q17 0 21 13.5t-4 23.5q7 9 3.5 21.5t-17.5 14.5q3 8 1.5 15.5t-8.5 12.5q6 13 14 22q30 36 49 52t35 20t32 2t39 -2q30 2 52.5 -3
t39 -14t27 -21.5t17.5 -25.5q16 -31 17 -71q-26 -5 -47 -7t-38 2q-6 16 -7.5 33.5t-6.5 31t-18.5 21.5t-41.5 6q-6 0 -16.5 -4t-23 -16t-25.5 -34t-23.5 -57.5t-16 -87.5t-3.5 -123q3 -84 16 -139t32 -87t41 -45.5t42.5 -15.5t37.5 4t25 13v57h-40v50h120z" />
    <glyph glyph-name="H" unicode="H" horiz-adv-x="400" 
d="M359 729v-728h-110v389h-142v-389h-111v728h34q4 -13 18 -14q-5 -10 -1 -22t18 -12q5 0 10 3q-2 -10 3.5 -18.5t16.5 -8.5q7 0 12 3v-241h142v310h110z" />
    <glyph glyph-name="I" unicode="I" horiz-adv-x="234" 
d="M153 682q-15 0 -19.5 -12.5t2.5 -22.5q-6 4 -12 4q-14 0 -19 -11t0 -21q-8 -10 -3.5 -23.5t20.5 -13.5q4 0 8 2q-2 -10 3 -19t18 -9q5 0 7 1v-514h35v-42h-35h-116h-40v42h40v655h-40v42h191v-42h-35v-16h-5v0z" />
    <glyph glyph-name="J" unicode="J" horiz-adv-x="392" 
d="M344 681h-100v-96.5t0.5 -116t0 -121t0 -112t0.5 -88.5v-50q0 -40 -24.5 -62t-62.5 -30h8h-8q-11 -2 -23 -3t-24 -1q-74 0 -104.5 29t-30.5 74h35q14 0 24.5 -0.5t11.5 -0.5v-8.5t4.5 -18.5t15.5 -17.5t34 -7.5q11 0 16.5 7.5t8 16.5t2.5 18.5v14.5v43q10 2 13.5 11
t0.5 18q7 1 11.5 5.5t6 10.5t0 12.5t-6.5 10.5q5 8 2 18t-12 14q2 8 -2 15.5t-13 9.5v110.5t0.5 114t0.5 103v77.5h-89v50h304v-50z" />
    <glyph glyph-name="K" unicode="K" horiz-adv-x="514" 
d="M495 7l-152 -2l-195 271l-33 -48v-229h-114v728h114v-58q-9 -1 -14 -7.5t-5 -14.5q-9 -1 -13.5 -7.5t-5 -14t4 -14.5t13.5 -8q-3 -9 2 -19t18 -10v-155l206 308h139l-240 -348z" />
    <glyph glyph-name="L" unicode="L" horiz-adv-x="341" 
d="M305 57v-55h-304v30q6 -2 10 -2q16 0 20 13.5t-4 22.5q7 6 7 16q14 4 15.5 18t-9.5 22q5 10 -0.5 21t-19.5 11q-4 0 -6 -1q-2 13 -13 17v560h116v-673h188z" />
    <glyph glyph-name="M" unicode="M" horiz-adv-x="563" 
d="M502 727v-637q-4 -2 -5 -4q-5 12 -17 12q-10 0 -15 -7t-5 -15h-1q-8 0 -12.5 -5t-6 -12t0.5 -13.5t8 -10.5q-10 -5 -11.5 -16.5t6.5 -19.5h-50v580l-115 -222h-58l-116 222v-580h-108v728h140l113 -294l112 294h140z" />
    <glyph glyph-name="N" unicode="N" horiz-adv-x="468" 
d="M407 728v-608q-11 -2 -15.5 -10.5t-4.5 -19.5q-6 4 -12 4q-10 0 -16 -6t-8 -14.5t0 -17t8 -14.5q-2 0 -3 0.5t-2 0.5q-17 0 -22.5 -15t0.5 -28h-32l-197 548v-548h-103v728h130l173 -463v463h104z" />
    <glyph glyph-name="O" unicode="O" horiz-adv-x="480" 
d="M420 476q-1 -8 2.5 -16t11.5 -13q3 -29 3 -59q0 -96 -18 -169t-50 -121.5t-75 -73.5t-92 -25q-44 0 -86 20t-74.5 66t-52 121.5t-16.5 185.5q2 81 15.5 138.5t34.5 96t46.5 61t51.5 33.5t49.5 14.5t40.5 3.5q51 1 98 -27t79 -89q-8 -3 -13 -9.5t-5.5 -14t2 -15.5t9.5 -12
q-9 -11 -6 -26.5t17 -20.5q-6 -6 -7.5 -14.5t1 -16.5t9 -13.5t17.5 -5.5q6 0 8 1zM202 41q21 0 38 16.5t31 44t24 62.5t16.5 72.5t10 73.5t3.5 66q0 32 -2.5 69.5t-9 75t-16 72t-23 60.5t-31.5 42t-40 16q-39 0 -62 -32t-35.5 -81.5t-16 -110t-3.5 -118.5q0 -25 3 -59.5
t9.5 -71t15.5 -72t22 -63.5t29.5 -45t36.5 -17z" />
    <glyph glyph-name="P" unicode="P" horiz-adv-x="373" 
d="M329 587q1 -18 -0.5 -41t-5.5 -46.5t-11 -45t-16 -37.5q-12 -21 -26 -33t-31.5 -19t-39.5 -10.5t-50 -5.5q-1 0 -5.5 0.5t-10 1.5t-10.5 2t-6 1v-69q-10 -1 -16 -6t-8 -12.5t-1 -15.5t6 -14q-6 2 -10 2q-12 0 -19 -6.5t-9 -15.5t1.5 -18t11.5 -14q-9 -12 -4.5 -28.5
t23.5 -18.5q-6 -13 0 -27.5t25 -14.5v-98h-116v728h93q21 10 44.5 15t46 4t43.5 -8.5t38 -21.5q11 -9 22 -25t19.5 -34.5t14.5 -36.5t7 -32zM117 389q38 0 64.5 35.5t26.5 118.5q0 63 -13 95.5t-28.5 46t-29 14t-13.5 -0.5q-2 -1 -3.5 -1t-3.5 -2v-306z" />
    <glyph glyph-name="Q" unicode="Q" horiz-adv-x="465" 
d="M445 36l-71 -58l-56 69q-55 -46 -115.5 -46.5t-117.5 45.5q-24 19 -42 51t-30 67.5t-19 70.5t-9 60q-3 34 0 85.5t12 105.5t23.5 103t34.5 77q20 29 36.5 44t33.5 23q2 -5 6.5 -9t12.5 -4q10 0 17 9q3 -14 19 -14q8 0 12.5 4t6.5 9q2 -6 7 -10.5t13 -4.5q15 0 19 13
q6 -3 13 -3q13 0 18 10q23 -8 39.5 -21.5t28 -27.5t18.5 -27t11 -21q20 -35 31 -79t16 -91.5t3.5 -96.5t-7 -94.5t-14.5 -85t-20 -67.5zM308 204q12 41 14 81.5t3 75.5q0 30 -3.5 67t-11 74.5t-18 72.5t-25 62.5t-32 44t-38.5 16.5q-24 0 -44.5 -30.5t-35.5 -78.5
t-24 -105.5t-9 -111.5q0 -41 4.5 -92.5t17 -98t34 -78t56.5 -31.5q21 0 38 10.5t31 29.5l-50 62l71 58z" />
    <glyph glyph-name="R" unicode="R" horiz-adv-x="429" 
d="M296 370q14 -10 25 -28t19 -38.5t12.5 -41t6.5 -34.5q1 -18 3.5 -48.5t5 -64t4 -65t1.5 -51.5q-7 -1 -21 -1.5t-30 -0.5t-31.5 0.5t-24.5 1.5q1 5 0.5 20t-1.5 35.5t-3 43.5t-3.5 43.5t-3 36t-1.5 21.5q-3 44 -14 73t-25.5 46t-30.5 24.5t-30.5 10t-24 1t-11.5 -1.5v-350
h-116v728h114q45 13 92 9.5t80 -25.5q13 -9 25 -23t21.5 -30.5t16 -32.5t7.5 -28q1 -9 1 -19.5t-2 -21.5q-10 -2 -13.5 -10.5t-1.5 -16.5h-4q-16 0 -20 -12.5t3 -22.5q-11 -4 -13.5 -15.5t4.5 -19.5q-11 -12 -2 -26q-16 -17 -35.5 -25.5t-45.5 -13.5q39 -8 67 -27zM118 426
q2 -1 12.5 -1t25 3.5t31 12t30.5 24t23.5 40t9.5 60.5q0 63 -33.5 101t-98.5 29v-269z" />
    <glyph glyph-name="S" unicode="S" horiz-adv-x="473" 
d="M419 299q4 -48 -3.5 -97.5t-27 -91t-50 -70t-71.5 -34.5q-95 -15 -155.5 3.5t-95 55t-46 83t-7.5 87.5q11 0 24 0.5t26.5 1t25.5 1t21 -0.5q1 -41 15 -74q6 -14 15.5 -27.5t24 -24t34.5 -17t46 -6.5q37 0 62 26t38 65.5t13 86.5t-12.5 89t-37.5 72.5t-63 36.5
q-43 -1 -75 11.5t-50.5 36t-22 57.5t10.5 77q13 5 13 18q6 -2 11 -2q11 0 15.5 6.5t5.5 14.5q4 -2 8 -2q13 0 18 9.5t2 19.5q10 0 15 6.5t5 14.5q13 2 27 3.5t30 3.5q27 -2 45.5 -10t29.5 -16q13 -10 22 -22q0 -6 -2.5 -13.5t-5 -15.5t-5 -15.5t-2.5 -12.5q-7 17 -20.5 32.5
t-27.5 26.5q-35 8 -56.5 -3.5t-31.5 -33t-11 -48.5t4 -51.5t15 -40.5t21 -16q10 0 29.5 -1t44 -7t51.5 -18t50 -34t39.5 -56.5t21.5 -83.5z" />
    <glyph glyph-name="T" unicode="T" horiz-adv-x="338" 
d="M303 680h-107v-680h-116v30q5 -8 16 -8q9 0 14 4.5t6.5 11t0 13t-6.5 10.5h1q8 0 13 4.5t7 10.5t0.5 12.5t-6.5 10.5q10 9 6.5 24t-20.5 15q-7 0 -11 -3q1 8 -4 15t-16 7v523h-81v49h304v-49z" />
    <glyph glyph-name="U" unicode="U" horiz-adv-x="480" 
d="M397 701q7 0 15 6v-706h-117v49q-55 -48 -117 -48t-115 52q-24 23 -39.5 63t-25.5 85t-14.5 89t-6.5 75t-1 75t5 93t11.5 99t18.5 93h25t30 0.5t29.5 0.5h25.5q-13 -50 -23 -117.5t-10 -152.5q0 -55 7 -116.5t20 -113.5t32.5 -85.5t44.5 -32.5q36 2 56 33t30.5 77.5
t13.5 101.5t3 105v279q2 -1 7 -1q11 0 16 7q2 -7 7 -12t14 -5q12 0 17 10q7 -5 14 -5q10 0 15 6q6 -4 12 -4z" />
    <glyph glyph-name="V" unicode="V" horiz-adv-x="509" 
d="M475 729l-205 -730l-68 2l-236 727l125 1l65 -213q-7 -5 -8 -14.5t5 -17.5q-12 -5 -12.5 -19t10.5 -20q-6 -9 -1.5 -21.5t19.5 -12.5q2 0 3 0.5t3 0.5q3 -14 18 -15l44 -143l5 22l112 453h121z" />
    <glyph glyph-name="W" unicode="W" horiz-adv-x="556" 
d="M496 727v-727h-138l-111 294l-112 -294h-138v727h107v-189h-4q-12 0 -16.5 -9.5t-1.5 -19.5q-8 0 -12.5 -4.5t-6 -11t0 -13t6.5 -10.5q-6 -4 -8 -11t-1 -13.5t6 -11.5t13 -5h2q-6 -9 -2 -21.5t18 -12.5q2 0 3 0.5t3 0.5v-249l12 22l102 200h57l114 -222v580h107z" />
    <glyph glyph-name="X" unicode="X" horiz-adv-x="531" 
d="M514 1h-135l-135 311l-136 -311h-134l192 449l-175 280l118 1l132 -197l119 196l123 1l-135 -227q-7 7 -16 7q-10 0 -15 -6t-6 -14q-1 0 -1.5 0.5t-1.5 0.5q-17 0 -20.5 -14.5t5.5 -23.5q-8 -3 -11 -9.5t-2.5 -14t6 -13t14.5 -5.5h3q5 -12 19 -12q9 0 14 5z" />
    <glyph glyph-name="Y" unicode="Y" horiz-adv-x="534" 
d="M504 719l-28 -53h-1q-9 0 -13.5 -5t-6.5 -12q-6 7 -16 7q-15 0 -19.5 -12.5t2.5 -22.5q-11 -3 -13.5 -13.5t2.5 -18.5q-11 -7 -10.5 -21.5t14.5 -18.5l-71 -138l-23 -44v-367h-117v360l-206 359l121 1l138 -226l120 225h127z" />
    <glyph glyph-name="Z" unicode="Z" horiz-adv-x="402" 
d="M134 38h225v-37h-362l243 704h-206v28h346l-105 -297q-2 1 -5 1q-10 0 -14 -6q-6 6 -15 6q-16 0 -19.5 -14t4.5 -23q-15 -2 -17.5 -16.5t7.5 -22.5q-10 0 -15 -6.5t-5 -14.5t5 -14.5t15 -7.5q0 -12 11 -17z" />
    <glyph glyph-name="backslash" unicode="\" horiz-adv-x="383" 
d="M365 3h-114l-285 727h103l211 -519q-6 -7 -6 -16.5t7 -15.5q-7 -2 -10.5 -7.5t-3.5 -12t3 -12t10 -8.5q-5 -10 0 -20t19 -10q6 0 8 1q-5 -4 -6.5 -10.5t0 -12.5t6.5 -10.5t13 -4.5q9 0 14 5z" />
    <glyph glyph-name="asciicircum" unicode="^" horiz-adv-x="531" 
d="M505 223h-125l-54 120q11 3 13.5 15t-4.5 20q9 6 9 18t-9 18q4 9 -1 19t-18 10q-3 0 -9 -2q0 8 -5 14t-15 6q-6 0 -12 -4l-41 92l-5 -15l-111 -311h-122l205 501l68 -1z" />
    <glyph glyph-name="underscore" unicode="_" horiz-adv-x="811" 
d="M790 73v-73h-790v46q2 0 3 -0.5t3 -0.5q16 0 20 16q5 -5 13 -5q10 0 15 7q5 -10 18 -10q9 0 14 6q6 -6 15 -6q10 0 15 6t6 14h668z" />
    <glyph glyph-name="a" unicode="a" horiz-adv-x="439" 
d="M381 729v-728h-99v35q-25 -20 -47 -29.5t-44.5 -8.5t-47.5 11t-56 28q-23 13 -40.5 45.5t-29 70.5t-18 76t-7.5 63q-2 27 -1 65t5 81q3 7 3 17q9 -11 21 -11q13 0 20 8.5t8.5 19.5t-2.5 22.5t-13 16.5q7 4 11 11.5t4.5 16t-1.5 16.5t-8 14q11 11 10 30t-14 27q7 17 17 32
q25 36 45.5 51t39.5 18.5t37 1t38 -2.5q24 -2 41 -10.5t29 -19.5v33h99zM282 589q-4 0 -9.5 16t-16 35.5t-26.5 35t-40 13.5q-47 -4 -76 -85.5t-29 -234.5q0 -65 7 -118t19 -92t27.5 -61.5t33.5 -24.5q19 -3 38.5 1.5t35.5 12.5q18 9 36 21v481z" />
    <glyph glyph-name="b" unicode="b" horiz-adv-x="392" 
d="M350 242q1 -19 -0.5 -42t-5.5 -46t-11 -45t-16 -38q-12 -20 -26 -32.5t-31.5 -19.5t-39.5 -10t-50 -5q-17 1 -29.5 3.5t-23.5 6.5v-16h-116v728h116v-90q-17 -1 -24 -13t-5 -25h-1q-16 0 -24.5 -10t-9.5 -22.5t6 -23.5t22 -13q-6 -7 -8 -17t1 -19.5t11 -16t21 -6.5
q5 0 11 2v-90q21 10 44 14.5t45.5 3.5t43.5 -8.5t37 -21.5q11 -10 22 -26t19.5 -34t14.5 -36.5t7 -31.5zM163 29q29 -8 48 38t19 131q0 72 -10.5 116t-33.5 47q-15 2 -33.5 -4.5t-35.5 -17.5v-275q11 -12 23 -22t23 -13z" />
    <glyph glyph-name="c" unicode="c" horiz-adv-x="387" 
d="M376 70q-39 -35 -70 -53.5t-61.5 -21.5t-64.5 7t-77 32q-27 13 -47.5 46t-34 72t-21 77.5t-9.5 63.5q-3 34 -0.5 86.5t11 107t23 103t36.5 75.5q30 36 54.5 51.5t46.5 19t43.5 0.5t44.5 -3q49 -3 73.5 -24t35.5 -45q12 -28 11 -62q-26 -5 -40 -7t-31 2q-6 17 -8 35
t-7.5 33t-18.5 24t-41 7q-55 -4 -89.5 -87t-34.5 -238q0 -31 2 -58.5t5 -53.5q-13 -6 -16.5 -21t2.5 -27q-11 -5 -15.5 -16t-2.5 -22t10 -19.5t23 -8.5q6 0 9 1q-7 -16 0.5 -33t29.5 -17q8 0 14 3q18 -26 41 -29q22 -3 36 -2t25.5 6t24 15t31.5 27z" />
    <glyph glyph-name="d" unicode="d" horiz-adv-x="424" 
d="M370 725v-728h-116v38q-22 -15 -48 -23t-52 -8.5t-50.5 6.5t-43.5 23q-11 10 -22 26t-19.5 34.5t-14.5 36.5t-7 32v9q13 0 21.5 7t11 17t-0.5 20.5t-11 17.5q1 1 1 2q2 0 4.5 -0.5t5.5 -0.5q14 0 22 8t10 19t-2 22t-14 16q4 11 1 23q7 8 8.5 18.5t-2.5 20.5
q22 21 51.5 28t73.5 10q28 -2 47 -8.5t30 -13.5v348h116zM254 296q-1 -2 -1 -6q-1 4 -2.5 12.5t-7.5 17.5q-10 17 -27 33t-32 21q-29 8 -47.5 -38t-18.5 -131q0 -72 10 -116t33 -47q21 -2 48.5 11t44.5 30v213z" />
    <glyph glyph-name="e" unicode="e" horiz-adv-x="373" 
d="M362 72q-38 -36 -69 -54.5t-62 -22t-64.5 6.5t-77.5 31q-27 13 -47.5 46t-35 71.5t-22 77t-9.5 63.5q-3 34 -1 86.5t9.5 107t21.5 103t36 75.5q30 37 54 52.5t46 19.5t43 1.5t44 -2.5q26 -1 43.5 -19.5t27 -45.5t12.5 -60t1.5 -64t-7.5 -55.5t-13 -35.5
q-16 -23 -41.5 -34.5t-53.5 -16.5t-55 -6t-46 -2h-13v-25q0 -14 0.5 -26.5t1.5 -24.5q-11 -2 -17 -9.5t-7.5 -17t1 -19t9.5 -15.5q-7 -6 -9.5 -14.5t-1.5 -17.5t6 -16.5t14 -10.5q-4 -15 4 -29.5t28 -14.5q2 0 2.5 0.5t1.5 0.5q14 -39 33 -61.5t39 -24.5q22 -2 36 -1.5
t25.5 6t23.5 15.5t31 27zM196 677q-94 9 -111 -221q13 3 28 2.5t30 -1.5t29 0t26 7q2 1 9.5 5.5t15 15.5t13 30.5t5.5 49.5q0 12 -1 30.5t-5 36t-13 30.5t-26 15z" />
    <glyph glyph-name="f" unicode="f" horiz-adv-x="341" 
d="M222 622q-1 0 -0.5 7.5t-0.5 17t-4.5 18.5t-11.5 13q-16 8 -24 1.5t-11.5 -18.5t-4 -26t-0.5 -21v-194h72v-27h-72v-209v-182h-116v182h2q12 0 20 6t11 15t2 18.5t-7 17.5q9 5 13 14t4 18.5t-5 18t-14 12.5q6 7 7 17t-2.5 18.5t-11 14.5t-19.5 6v33h-69v27h69v20
q0 47 -1 94t1 95q1 37 14.5 58.5t36 32t51.5 12t60 0.5q21 -1 40.5 -8.5t34 -22t23 -34t8.5 -44.5q-11 -1 -27 -1.5t-31 -0.5t-26 0.5z" />
    <glyph glyph-name="g" unicode="g" horiz-adv-x="392" 
d="M334 204v-14.5v-28v-29.5v-19q0 -44 -18.5 -66.5t-46 -32.5t-59 -11t-58.5 -1q-42 0 -71.5 9.5t-47.5 26t-26 38t-7 46.5q25 1 44 1h30.5t14.5 -1l1 -10t7 -21.5t21 -21t44 -10.5q14 0 24.5 5.5t16.5 14.5t9 20t2 21q-1 6 -1.5 26.5t-0.5 51t0.5 69t0.5 80.5
q-40 -14 -82.5 -10t-71.5 29q-11 9 -22 25t-19.5 34t-14 36t-6.5 32q-2 18 -0.5 41t5.5 46t11 45t16 38q12 20 26 32.5t32 19t40 10t50 5.5q11 -1 21.5 -3t18.5 -4v7h12q4 -8 11 -13t18 -5q2 0 2.5 0.5t2.5 0.5q-5 -15 3.5 -29.5t28.5 -14.5q8 0 12 2q3 -8 9.5 -14t17.5 -7
v-446zM213 388q0 42 0.5 84.5t1.5 81t1.5 72t0.5 57.5q-8 8 -17 14t-17 8q-29 8 -47.5 -38t-18.5 -130q0 -35 2.5 -64.5t7.5 -50.5t13.5 -33.5t19.5 -13.5q11 -2 25 2t28 11z" />
    <glyph glyph-name="h" unicode="h" horiz-adv-x="429" 
d="M384 217q1 -11 1 -38v-59.5v-65.5v-55q-20 1 -47.5 -0.5t-47.5 0.5q0 120 -5 185.5t-15 95.5t-25 35.5t-36 5.5t-37.5 -6t-28.5 -25.5t-18.5 -56.5t-7.5 -98q-1 -34 -0.5 -67.5t0.5 -67.5h-117v728h117v-89q-17 -6 -20.5 -24t5.5 -31q-1 1 -5 1q-17 0 -25 -10.5t-8 -23.5
t8 -23.5t24 -11.5q-5 -14 0 -28.5t21 -19.5v-122q9 4 27.5 14t44 16t56.5 3t66 -26q33 -23 51.5 -60.5t21.5 -75.5z" />
    <glyph glyph-name="i" unicode="i" horiz-adv-x="173" 
d="M93 423q-1 0 -1.5 -0.5t-1.5 -0.5q-16 0 -24.5 10t-9 23t7 23.5t22.5 12.5q-5 8 -5.5 17.5t3 17.5t11 13.5t19.5 5.5h1v53h-116v-597h116v384q-12 4 -17.5 15t-4.5 23zM-1 728h116v-78h-116v78z" />
    <glyph glyph-name="j" unicode="j" horiz-adv-x="317" 
d="M251 288q-5 11 -4 20h-4q-14 0 -21.5 9t-7.5 20.5t7.5 20.5t21.5 9q2 0 2.5 -0.5t1.5 -0.5q-2 11 3 22.5t19 13.5v118t-1 86h-114q-1 -136 -2 -245q0 -47 -0.5 -92.5t-0.5 -83v-63v-31.5v-13t-2 -15.5t-7.5 -13.5t-17.5 -6q-23 0 -33.5 6.5t-15 14.5t-4.5 15t-1 7
t-11.5 0.5t-24.5 0.5h-35q0 -38 30.5 -62.5t104.5 -24.5q27 0 51.5 4.5t43 14.5t29 25.5t10.5 36.5v178q-9 4 -13 12t-4 17zM153 732h117v-78h-117v78z" />
    <glyph glyph-name="k" unicode="k" horiz-adv-x="373" 
d="M172 153q4 2 27.5 -7t50.5 -28t49.5 -48.5t25.5 -69.5h-106q-5 26 -18 50q-11 20 -31.5 39.5t-53.5 27.5v-117h-117v15q9 5 12.5 14.5t1.5 19.5q15 2 20 15.5t0 25.5q10 3 15 12t4.5 19t-7.5 18t-19 9q5 13 -1.5 27t-24.5 14h-1v538h117v-523q12 9 26.5 21t28.5 28
t25.5 36t18.5 44h117q-21 -42 -47 -78q-22 -31 -51.5 -60.5t-61.5 -41.5z" />
    <glyph glyph-name="l" unicode="l" horiz-adv-x="249" 
d="M214 55v-54h-97h-115h-2v445q7 6 9 14.5t0 16.5q17 5 19.5 22.5t-9.5 28.5q8 2 13 8t6.5 13.5t-0.5 15t-7 13.5q7 13 0.5 28.5t-25.5 15.5h-6v107h117v-674h97z" />
    <glyph glyph-name="m" unicode="m" horiz-adv-x="536" 
d="M480 475q0 -45 1.5 -93.5t3 -105.5t2 -124.5t0.5 -150.5h-107q-1 90 -1 169v230q0 63 -7 110t-17 74t-22 32t-22 -16t-17 -70t-7 -130h-79q0 82 -8 132.5t-19.5 72.5t-24.5 17.5t-24.5 -32t-19.5 -76t-8 -114.5v-24q-2 1 -6 1q-9 0 -14 -5t-7.5 -12.5t-1.5 -16t5 -14.5
q-7 -4 -10 -11.5t-3 -16t4 -16.5t11 -11q-9 -3 -13 -12t-3.5 -19t6 -18t16.5 -8q3 0 9 2q0 -15 8 -23l1 -195h-101v728h94v-48q9 28 26.5 41t39 10.5t43 -20.5t38.5 -52q10 24 31.5 42.5t47.5 25.5t53.5 -1.5t50 -37t37 -81t14.5 -133.5z" />
    <glyph glyph-name="n" unicode="n" horiz-adv-x="414" 
d="M198 728q34 2 59 -20t42.5 -61t29 -91.5t18.5 -111.5t9.5 -121.5t3.5 -121.5t0.5 -111t-0.5 -90h-12q2 13 -3.5 25t-19.5 12q-3 0 -7 -2q-7 16 -21 16q-8 0 -12 -4q5 11 2.5 24t-11.5 18q3 6 3.5 14.5t-1.5 15.5t-7.5 12t-13.5 5q-5 0 -8 -1q1 64 1 133t-3 131
t-11.5 110.5t-24.5 72t-41.5 16t-63.5 -58.5q0 -3 -1 -40t-2 -106t-2 -168t0 -225h-102v726l100 2q0 -13 1 -30q0 -14 0.5 -34.5t0.5 -46.5q6 9 13 27.5t18 36.5t27 32t39 15z" />
    <glyph glyph-name="o" unicode="o" horiz-adv-x="483" 
d="M197 732q31 0 71.5 -12.5t77.5 -48t62.5 -100t25.5 -169.5q0 -108 -16 -179q-11 -2 -17 -10t-6 -18q-6 2 -11 2q-19 0 -25 -15.5t0 -28.5h-1q-12 0 -19 -7t-9 -16t1.5 -18.5t12.5 -13.5q-14 -6 -16.5 -21.5t6.5 -26.5q-29 -29 -62 -39.5t-63 -10.5q-43 0 -84 11t-73 51.5
t-51.5 120t-19.5 216.5q0 85 13 142.5t34 94.5t46 57t49 28.5t44 9.5t30 1zM312 399q0 23 0.5 54t-2 63.5t-8.5 64t-17.5 56.5t-30 40t-46.5 15q-42 -2 -62.5 -27t-28.5 -65.5t-8 -93t-1 -107.5q-1 -68 1.5 -131.5t12 -113t29 -79.5t51.5 -30q33 0 53.5 34t33 86.5
t17.5 114.5t6 119z" />
    <glyph glyph-name="p" unicode="p" horiz-adv-x="397" 
d="M360 598q1 -18 0 -41t-5.5 -46.5t-11.5 -45t-16 -37.5q-12 -21 -26 -33t-31.5 -19t-39.5 -10.5t-50 -5.5q-21 2 -36.5 6.5t-27.5 9.5v-380h-116v545q16 5 20.5 20.5t-2.5 29.5q2 -1 4 -1q17 0 25.5 11t8.5 23.5t-8.5 23.5t-25.5 11q-6 0 -9 -1q6 12 3 26.5t-16 21.5v18
h103q22 15 48 23.5t52.5 9t51 -6.5t42.5 -23q11 -10 22 -26t19.5 -34.5t14.5 -36.5t7 -32zM173 386q29 -9 48 37t19 131q0 71 -10.5 116t-32.5 47q-18 2 -40.5 -7t-40.5 -23v-251q11 -17 27 -31.5t30 -18.5z" />
    <glyph glyph-name="q" unicode="q" horiz-adv-x="405" 
d="M330 55q25 -3 51 -3q-15 -7 -25 -14.5t-18.5 -14.5t-19 -12.5t-26.5 -8.5q-19 -3 -39 -1.5t-40 1.5v382q-21 -10 -44 -14.5t-45.5 -3t-43 8.5t-36.5 21q-11 10 -22 26t-19.5 34.5t-14.5 36.5t-7 32q-1 18 0.5 41t5.5 46t11 45t16 38q12 21 26 33t31.5 19t39.5 10.5
t50 5.5q38 -3 59.5 -14t29.5 -19h80q0 -73 -1 -146t-3 -148q-12 -2 -18.5 -11t-7.5 -20q-9 -4 -14 -11.5t-5.5 -16t2.5 -17t10 -14.5l-1 -1l-3 -3q-10 -10 -10.5 -24.5t10.5 -24.5q16 -15 36 -8q0 -58 1 -115.5t4 -114.5zM213 702q-10 13 -22 22.5t-23 12.5q-29 8 -48 -37.5
t-19 -130.5q0 -71 10.5 -116t33.5 -47q15 -2 33 4.5t35 17.5v274z" />
    <glyph glyph-name="r" unicode="r" horiz-adv-x="407" 
d="M276 733q49 -4 70.5 -25t28.5 -46q8 -29 2 -64q-26 -5 -41 -1t-32 8q-6 16 -4.5 30.5t-0.5 26t-11.5 20t-37.5 13.5q-39 8 -75 -15t-60 -75q-1 -36 -1 -81.5v-95t0.5 -100t0.5 -98.5q1 -112 3 -229h-116v189q6 -3 15 -3q18 0 26.5 12t6.5 26q12 4 17.5 15t4 23t-9.5 21
t-23 9q-4 0 -10 -2q8 15 1.5 33t-28.5 19v386h116v-32q23 21 43 29.5t39 9.5t37.5 -1t38.5 -2z" />
    <glyph glyph-name="s" unicode="s" horiz-adv-x="441" 
d="M221 670v1v-1zM115 184v-1v1zM407 298q4 -48 -3.5 -97.5t-27 -91t-50 -70t-70.5 -34.5q-68 -11 -118.5 -4t-86 26.5t-57 48t-31.5 60.5q15 1 21.5 13t2.5 25q6 -2 10 -2q9 0 14 5t6.5 11.5t-1 13.5t-8.5 11v1q9 2 13.5 8t3.5 14h23q1 -40 15 -71q6 -13 15.5 -26t24 -22.5
t34.5 -15t46 -4.5q33 1 55 28.5t33 68.5t10.5 88.5t-11.5 88t-33 67t-54 25.5q-45 -1 -77.5 12t-50.5 38t-20 61.5t15 81.5q9 26 23 41t32 23t41 11t51 6q26 -2 45 -10t30 -16q13 -10 21 -22q0 -12 -7 -29.5t-8 -27.5q-5 13 -14.5 25.5t-20 22t-21.5 16.5t-18 10
q-10 3 -19.5 -10t-17 -35.5t-12 -50t-3.5 -52t7 -43t21 -22.5q20 -6 43.5 -8.5t47 -7t46 -14t41 -29t31.5 -52.5t18 -84z" />
    <glyph glyph-name="t" unicode="t" horiz-adv-x="283" 
d="M254 611v-27h-67v-155q-9 -4 -13.5 -12t-3.5 -17h-1q-12 0 -18.5 -6.5t-8.5 -15.5t0.5 -18t9.5 -14q-12 -9 -11.5 -25.5t14.5 -24.5q-5 -6 -6.5 -15t1 -16.5t9 -13t17.5 -5.5q5 0 11 2v-247h-117v583h-73v27h73v118h117v-118h67z" />
    <glyph glyph-name="u" unicode="u" horiz-adv-x="465" 
d="M407 728v-728h-116q1 20 3 42q2 19 3 43t1 49q-9 -8 -17 -29.5t-20.5 -45t-33.5 -41.5t-56 -18q-57 0 -91 42.5t-52 110.5t-23.5 152t-4.5 167h1q20 0 26.5 16t-1.5 29q10 3 14.5 12t3.5 18.5t-7 17t-17 9.5q10 11 6 28t-21 20q2 31 3 57.5t1 48.5q25 -1 48 -1
q19 0 38 -0.5t28 1.5q1 -61 1.5 -126t2 -129t4.5 -122t9.5 -104t18 -76.5t28.5 -39t41.5 9.5t57.5 68q4 37 5.5 84t2.5 98t0.5 102.5t-1.5 97t-1.5 81.5t-0.5 56h116z" />
    <glyph glyph-name="v" unicode="v" horiz-adv-x="502" 
d="M485 726l-136 -485q-2 0 -3 0.5t-3 0.5q-17 0 -24 -13.5t-2 -26.5q-2 0 -3 0.5t-2 0.5q-12 0 -19 -7t-9 -16t1.5 -18t11.5 -14q-14 -9 -12 -23q0 -11 6.5 -19t16.5 -10l-28 -99l-68 2l-236 727h125l146 -474l117 474h121z" />
    <glyph glyph-name="w" unicode="w" horiz-adv-x="580" 
d="M534 730l-5 -476q1 -83 -14.5 -135t-40.5 -80t-56 -35t-61 0t-55 25.5t-37 41.5q-12 -26 -37.5 -45t-57 -24t-63.5 7t-57 49q9 3 13.5 11.5t4 18.5t-6 17.5t-15.5 9.5q7 5 9.5 14t0.5 18t-8.5 15.5t-16.5 6.5q-2 0 -3 -1q5 13 0 28t-22 16q0 11 -0.5 21.5t-0.5 22.5
q0 45 -1.5 93.5t-3 105.5t-2.5 124.5t-1 150.5h120v-169v-68.5v-65.5t0.5 -56t0.5 -40q0 -63 7.5 -110t19 -74t24.5 -32t24.5 16t19 70t8.5 130h88q0 -123 16.5 -176.5t36 -48t36 63.5t16.5 157l-7 403h127z" />
    <glyph glyph-name="x" unicode="x" horiz-adv-x="548" 
d="M532 3h-135l-135 311l-136 -311h-134l192 449l-174 280l117 1l132 -197l120 196l122 1l-167 -279l14 -32q-10 -1 -15.5 -7t-7.5 -14t0 -16t8 -14q-6 -6 -8 -14.5t0.5 -16.5t9 -14t17.5 -6q4 0 6 1q-2 -12 5 -23.5t23 -11.5q8 0 13 3q0 -9 5 -17t15 -11z" />
    <glyph glyph-name="y" unicode="y" horiz-adv-x="334" 
d="M274 438q-7 -20 6 -34l-1 -115q-1 -48 -1 -95t-2 -95q-2 -37 -16 -58t-36.5 -31.5t-51.5 -12t-60 0.5q-21 1 -40.5 9.5t-34 22.5t-22.5 34t-8 45q11 1 27.5 1.5t31.5 0t26 -1l11 -0.5q1 -1 0.5 -8t0.5 -16.5t4 -19t11 -13.5q15 -8 23.5 -2t12 18t4.5 25.5t1 21.5
q0 32 0.5 63t1.5 63q1 58 1.5 115.5t1.5 116.5q-4 -1 -19.5 -2.5t-36.5 3t-43 17.5t-38.5 41.5t-23.5 76t3 119.5h108q-8 -73 -6 -123q1 -21 4 -39.5t9.5 -29.5t17 -12t26.5 13v8v11v22.5t0.5 29.5t0.5 33q1 39 2 87l116 -2q0 -32 -0.5 -63t-1.5 -63q-11 0 -18 -6.5t-9 -15
t0.5 -17.5t10.5 -14h-1q-12 0 -19 -7.5t-8.5 -17.5t3 -19t14.5 -13q-7 -5 -9.5 -14t-0.5 -17.5t9 -15t19 -6.5v1v0z" />
    <glyph glyph-name="z" unicode="z" horiz-adv-x="395" 
d="M358 37v-36h-361l124 362q14 2 19.5 14.5t1.5 23.5h3q10 0 17 5.5t9.5 13t1 16.5t-6.5 15q2 -1 8 -1q13 0 20 7.5t8 17.5t-4 19.5t-15 12.5q5 8 4.5 17t-5.5 16l57 164h-206v28h346l-246 -695h225z" />
    <glyph glyph-name="quotedblleft" unicode="&#x201c;" horiz-adv-x="375" 
d="M341 528h-125q0 18 -2.5 42t-2 49t6 46.5t21.5 34.5q12 10 27 15t32 7q-9 -1 -16 -9t-11 -18.5t-4.5 -21t4.5 -16.5t13.5 -8t18.5 -2t20 1t18 1v-121zM9 613q4 14 -9 22q2 20 7.5 37t18.5 28q12 10 27.5 15t31.5 7q-9 -1 -16 -9t-10.5 -18.5t-4 -21t4.5 -16.5t13.5 -8
t18 -2t20 1t18.5 1v-121h-126v14q12 2 16.5 11.5t0.5 18.5q7 3 10.5 9.5t2.5 13.5t-6.5 12.5t-15.5 5.5h-2z" />
  </font>
</defs>
</svg>
